<svg width="86" height="87" viewBox="0 0 86 87" fill="none" xmlns="http://www.w3.org/2000/svg">
<g clip-path="url(#clip0_213_47)">
<path d="M84.8242 74.8598L68.0777 58.1133C67.3219 57.3574 66.2973 56.9375 65.2223 56.9375H62.4844C67.1203 51.0082 69.875 43.5504 69.875 35.4375C69.875 16.1379 54.2371 0.5 34.9375 0.5C15.6379 0.5 0 16.1379 0 35.4375C0 54.7371 15.6379 70.375 34.9375 70.375C43.0504 70.375 50.5082 67.6203 56.4375 62.9844V65.7223C56.4375 66.7973 56.8574 67.8219 57.6133 68.5777L74.3598 85.3242C75.9387 86.9031 78.4918 86.9031 80.0539 85.3242L84.8074 80.5707C86.3863 78.9918 86.3863 76.4387 84.8242 74.8598ZM34.9375 56.9375C23.0621 56.9375 13.4375 47.3297 13.4375 35.4375C13.4375 23.5621 23.0453 13.9375 34.9375 13.9375C46.8129 13.9375 56.4375 23.5453 56.4375 35.4375C56.4375 47.3129 46.8297 56.9375 34.9375 56.9375Z" fill="#2D6DA6"/>
</g>
<defs>
<clipPath id="clip0_213_47">
<rect width="86" height="86" fill="white" transform="translate(0 0.5)"/>
</clipPath>
</defs>
</svg>
