<svg width="86" height="87" viewBox="0 0 86 87" fill="none" xmlns="http://www.w3.org/2000/svg">
<mask id="mask0_212_19" style="mask-type:alpha" maskUnits="userSpaceOnUse" x="0" y="0" width="86" height="87">
<rect y="0.5" width="86" height="86" fill="#D9D9D9"/>
</mask>
<g mask="url(#mask0_212_19)">
<path d="M37.9833 58.55L63.2458 33.2875L58.2292 28.2708L37.9833 48.5167L27.7708 38.3042L22.7542 43.3208L37.9833 58.55ZM17.9167 75.75C15.9458 75.75 14.2587 75.0483 12.8552 73.6448C11.4517 72.2413 10.75 70.5542 10.75 68.5833V18.4167C10.75 16.4458 11.4517 14.7587 12.8552 13.3552C14.2587 11.9517 15.9458 11.25 17.9167 11.25H68.0833C70.0542 11.25 71.7413 11.9517 73.1448 13.3552C74.5483 14.7587 75.25 16.4458 75.25 18.4167V68.5833C75.25 70.5542 74.5483 72.2413 73.1448 73.6448C71.7413 75.0483 70.0542 75.75 68.0833 75.75H17.9167ZM17.9167 68.5833H68.0833V18.4167H17.9167V68.5833Z" fill="#2D6DA6"/>
</g>
</svg>
