<svg width="86" height="87" viewBox="0 0 86 87" fill="none" xmlns="http://www.w3.org/2000/svg">
<mask id="mask0_213_53" style="mask-type:alpha" maskUnits="userSpaceOnUse" x="0" y="0" width="86" height="87">
<rect y="0.5" width="86" height="86" fill="#D9D9D9"/>
</mask>
<g mask="url(#mask0_213_53)">
<path d="M21.5003 50.667H50.167V43.5003H21.5003V50.667ZM21.5003 39.917H64.5003V32.7503H21.5003V39.917ZM21.5003 29.167H64.5003V22.0003H21.5003V29.167ZM7.16699 79.3337V14.8337C7.16699 12.8628 7.86873 11.1757 9.2722 9.7722C10.6757 8.36873 12.3628 7.66699 14.3337 7.66699H71.667C73.6378 7.66699 75.325 8.36873 76.7285 9.7722C78.1319 11.1757 78.8337 12.8628 78.8337 14.8337V57.8337C78.8337 59.8045 78.1319 61.4916 76.7285 62.8951C75.325 64.2986 73.6378 65.0003 71.667 65.0003H21.5003L7.16699 79.3337ZM18.4545 57.8337H71.667V14.8337H14.3337V61.8649L18.4545 57.8337Z" fill="#2D6DA6"/>
</g>
</svg>
