<svg width="31" height="30" viewBox="0 0 31 30" fill="none" xmlns="http://www.w3.org/2000/svg">
<path d="M28.1667 30L17.6667 19.5C16.8333 20.1667 15.875 20.6944 14.7917 21.0833C13.7083 21.4722 12.5556 21.6667 11.3333 21.6667C8.30556 21.6667 5.74306 20.6181 3.64583 18.5208C1.54861 16.4236 0.5 13.8611 0.5 10.8333C0.5 7.80556 1.54861 5.24306 3.64583 3.14583C5.74306 1.04861 8.30556 0 11.3333 0C14.3611 0 16.9236 1.04861 19.0208 3.14583C21.1181 5.24306 22.1667 7.80556 22.1667 10.8333C22.1667 12.0556 21.9722 13.2083 21.5833 14.2917C21.1944 15.375 20.6667 16.3333 20 17.1667L30.5 27.6667L28.1667 30ZM11.3333 18.3333C13.4167 18.3333 15.1875 17.6042 16.6458 16.1458C18.1042 14.6875 18.8333 12.9167 18.8333 10.8333C18.8333 8.75 18.1042 6.97917 16.6458 5.52083C15.1875 4.0625 13.4167 3.33333 11.3333 3.33333C9.25 3.33333 7.47917 4.0625 6.02083 5.52083C4.5625 6.97917 3.83333 8.75 3.83333 10.8333C3.83333 12.9167 4.5625 14.6875 6.02083 16.1458C7.47917 17.6042 9.25 18.3333 11.3333 18.3333Z" fill="white"/>
</svg>
