<svg width="387" height="95" viewBox="0 0 387 95" fill="none" xmlns="http://www.w3.org/2000/svg">
<path d="M44.7441 0.444172C44.629 0.469949 44.2048 0.566518 43.8049 0.656703C42.4902 0.959103 40.6792 1.41366 39.6257 1.7127C38.0576 2.15806 36.8228 2.5323 36.6597 2.60729C36.5933 2.63851 36.3633 2.71436 36.1453 2.77182C35.9273 2.8293 35.7276 2.89868 35.6915 2.92344C35.6615 2.95419 35.4134 3.03635 35.1531 3.11258C34.8868 3.1889 34.6266 3.27728 34.5784 3.30827C34.5241 3.33933 34.3186 3.42094 34.1188 3.48425C33.4594 3.71139 32.8485 3.93184 32.7278 3.99413C32.6614 4.02535 32.4559 4.11303 32.2744 4.1761C32.093 4.24525 31.7362 4.38346 31.4884 4.48383C31.2406 4.59027 30.884 4.73456 30.7026 4.80978C30.5213 4.87892 30.2796 4.98528 30.1769 5.03519C30.0681 5.08518 29.8748 5.16663 29.7538 5.21071C29.6268 5.26093 29.4455 5.34222 29.343 5.3982C29.2465 5.45411 29.1437 5.49795 29.1194 5.49826C29.0891 5.49865 28.8897 5.58625 28.6662 5.69238C28.4367 5.79858 28.1468 5.93594 28.0138 5.99838C25.8997 6.97913 22.7919 8.65296 21.1043 9.72538C20.7245 9.96715 20.3024 10.2216 20.1697 10.2962C20.037 10.3708 19.9165 10.4513 19.8986 10.4758C19.8807 10.5004 19.8024 10.556 19.7179 10.5996C19.5368 10.6991 18.0791 11.6896 17.3988 12.1782C17.1338 12.3699 16.8509 12.574 16.7665 12.6297C16.5077 12.8153 15.3704 13.6802 14.9133 14.0505C12.1104 16.2852 9.37362 18.932 7.73511 20.9816C7.46591 21.313 6.9696 21.9328 6.62267 22.3624C5.1392 24.1853 4.54246 25.0312 3.53732 26.7203C2.87111 27.8343 1.92962 29.7474 1.74312 30.3632C1.70232 30.4973 1.63753 30.6561 1.59594 30.7295C1.55427 30.7968 1.48372 30.9799 1.44915 31.1261C1.4085 31.2724 1.34425 31.4737 1.30306 31.5774C1.10821 32.0172 0.762486 33.4792 0.542234 34.7757C0.412138 35.5244 0.452047 38.6152 0.594571 39.2996C0.930892 40.8743 1.24036 41.7814 1.79457 42.8188C2.46074 44.0553 3.98362 45.7543 5.38921 46.8415C5.72674 47.0984 6.08258 47.361 6.18664 47.4204C6.28472 47.4859 6.39502 47.5574 6.43187 47.5873C6.57326 47.713 8.20712 48.5968 8.48196 48.7026C8.59792 48.7436 8.7813 48.8263 8.87921 48.8797C8.98329 48.9391 9.17265 49.0155 9.30688 49.0563C9.4411 49.0971 9.58151 49.15 9.61227 49.18C9.68593 49.2336 10.8392 49.6075 11.2293 49.6996C11.3817 49.7341 11.5586 49.7865 11.6258 49.816C11.7298 49.8693 12.4853 50.0235 13.5451 50.2163C13.9045 50.2846 15.3164 50.4425 16.0096 50.4883C16.7517 50.5455 19.5648 50.5092 20.3538 50.4322C21.3552 50.3403 23.327 50.0962 23.6603 50.0251C23.8299 49.9865 24.3573 49.8886 24.8423 49.8034C26.1276 49.5682 27.006 49.3625 29.2649 48.7685C30.1733 48.5261 30.9785 48.291 31.1113 48.2285C31.1778 48.1973 31.3533 48.1404 31.5047 48.102C31.8256 48.0128 32.9994 47.615 33.1685 47.534C33.2349 47.5027 33.4285 47.4334 33.5919 47.3827C33.9671 47.2625 34.8621 46.9291 35.1037 46.8166C35.2064 46.7667 35.3515 46.7102 35.4362 46.6848C35.521 46.6594 35.6722 46.6028 35.7689 46.5591C36.2884 46.3216 37.1345 45.9645 37.1648 45.9641C37.1831 45.9638 37.3462 45.8949 37.5275 45.8075C37.7086 45.7202 38.0107 45.5827 38.204 45.4952C38.959 45.1453 38.959 45.1453 38.516 45.1875C38.2975 45.2025 37.7694 45.2518 37.3325 45.2999C36.2948 45.4044 30.8207 45.4811 29.8596 45.4024C28.8012 45.3188 27.0122 45.1354 26.6164 45.0677C24.8504 44.7746 23.0522 44.3484 22.3679 44.0596C22.2702 44.0184 22.0749 43.9541 21.9407 43.9133C21.2818 43.7153 19.5635 42.8811 18.8525 42.4105C17.5777 41.5646 16.4825 40.5158 15.7208 39.4143C13.9807 36.8859 13.4913 33.3394 14.3322 29.2837C14.4923 28.5103 14.7468 27.511 14.8296 27.3338C14.8591 27.2667 14.9292 27.0471 14.9812 26.846C15.0334 26.6449 15.0977 26.4498 15.1216 26.4191C15.1454 26.3823 15.2218 26.1809 15.2858 25.9615C15.3498 25.742 15.4495 25.4614 15.4966 25.3393C15.5496 25.2111 15.6194 24.9672 15.6535 24.7907C15.6938 24.614 15.7761 24.4004 15.8479 24.3084C15.9197 24.2224 16.0445 24.0082 16.1211 23.8251C16.381 23.2448 17.2872 21.4232 17.5071 21.0438C17.62 20.8419 17.7803 20.5544 17.8634 20.4015C18.065 20.0102 19.1615 18.3381 19.687 17.6147C21.1497 15.5977 22.5514 14.037 24.8872 11.8569C25.6076 11.1796 27.3873 9.71119 28.3324 9.01878C28.8741 8.617 29.4462 8.20877 29.8317 7.94874C30.0786 7.7755 30.3136 7.62065 30.3436 7.58991C30.3797 7.56514 30.5423 7.45372 30.7051 7.34841C31.2173 7.01381 31.6633 6.72869 31.8801 6.58621C32.8143 5.98505 34.6542 4.94101 36.0123 4.23721C37.0083 3.72028 38.4332 3.00954 38.4879 3.00884C38.5122 3.00852 39.0137 2.78342 39.5149 2.5401C39.6175 2.49019 40.0103 2.32114 40.3911 2.16439C40.7719 2.00766 41.1406 1.85106 41.207 1.81984C41.2734 1.78255 41.4789 1.70094 41.6604 1.63787C42.2592 1.41759 42.8396 1.19146 42.9603 1.12917C43.0268 1.09795 43.4744 0.94034 43.9585 0.78226C45.0718 0.409579 45.3498 0.2906 44.7441 0.444172Z" fill="#2D6DA6"/>
<path d="M57.3854 2.94119C54.6438 3.32881 52.1437 5.01299 50.4213 7.62849C50.1234 8.08781 49.5308 9.24939 49.4496 9.54803C49.4263 9.63339 49.3735 9.77983 49.3263 9.88365C49.285 9.98136 49.1804 10.3532 49.0938 10.7066C48.8689 11.6447 48.8499 12.9933 49.0497 13.8774C49.4555 15.6577 50.3792 17.073 51.9634 18.3462C52.5714 18.8424 52.9941 19.1042 53.5869 19.3638C53.8558 19.4818 54.1247 19.6058 54.1798 19.6355C54.3205 19.7066 55.0767 19.9154 55.5703 20.0184C56.1307 20.1327 57.9602 20.1576 58.7307 20.0627C59.9682 19.9009 61.3724 19.4698 62.338 18.9473C64.2025 17.9333 65.7982 16.3275 66.6929 14.5547C67.084 13.7845 67.2364 13.3452 67.4848 12.3521C67.6696 11.6027 67.6858 11.4506 67.6755 10.6491C67.6697 9.73212 67.6296 9.44719 67.3674 8.43632C66.9195 6.69298 65.9409 5.26016 64.5864 4.36056C63.6914 3.76477 62.4638 3.27653 61.4589 3.10729C61.1544 3.05656 60.8132 2.98808 60.6974 2.95921C60.4351 2.88364 57.8828 2.87404 57.3854 2.94119Z" fill="#2D6DA6"/>
<path d="M51.3074 28.6975C51.1252 28.706 50.6579 28.7484 50.2756 28.7898C49.8933 28.8311 49.1165 28.908 48.5521 28.9699C46.4282 29.1917 43.7606 29.6694 40.7252 30.3644C38.4896 30.8853 35.475 31.7804 32.5531 32.796C30.5871 33.4833 30.1818 33.6282 29.9824 33.7219C29.8979 33.7594 29.4505 33.9352 28.9849 34.1112C27.3946 34.7209 26.5365 35.0903 26.8516 35.0194C29.1114 34.5044 31.1547 34.1501 33.266 33.886C34.6674 33.71 34.9104 33.7008 37.5472 33.6668C40.2508 33.632 40.3845 33.6302 41.5896 33.7787C43.4763 34.0094 44.8593 34.2892 46.2201 34.7271C47.4283 35.1185 48.8407 35.7865 49.8091 36.4299C51.5374 37.5676 53.0353 39.2124 53.8342 40.8479C55.1888 43.6303 55.248 47.2734 53.998 51.1825C53.7525 51.9328 53.6059 52.3415 53.2174 53.3183C52.9996 53.8616 52.1291 55.628 51.7015 56.3927C50.1454 59.1822 48.3128 61.7323 46.0188 64.3127C39.7834 71.3165 30.3797 78.6044 20.5993 84.0146C20.0865 84.3003 19.3444 84.7108 18.9462 84.9348C18.2463 85.3202 14.745 87.1143 13.7546 87.5948C12.728 88.0942 11.6831 88.5868 11.2481 88.7809C11.0004 88.8935 10.3903 89.1684 9.8888 89.3937C8.11261 90.1937 6.83734 90.7325 3.72417 91.9939L3.30099 92.1629L4.00032 92.2029C4.3834 92.2219 5.19154 92.2179 5.79279 92.1914C12.4551 91.8989 19.6965 90.3301 27.4258 87.4971C28.7383 87.0187 29.1011 86.8809 30.5699 86.2783C35.7261 84.1714 41.2262 81.4041 45.9954 78.506C46.8516 77.9848 48.3045 77.0918 48.5274 76.9432C48.642 76.8686 49.0398 76.6148 49.4014 76.3854C53.0113 74.0674 55.5093 72.219 58.2195 69.8644C64.8835 64.0633 69.825 58.0477 72.5774 52.3701C73.8858 49.681 74.581 47.51 74.8261 45.3386C75.0386 43.4411 75.0325 42.4816 74.7847 40.7113C74.4629 38.353 73.5728 36.2752 72.1904 34.6411C71.7342 34.1004 70.6757 33.0937 70.1665 32.7177C69.087 31.9117 67.0552 30.8266 65.8036 30.375C63.032 29.3844 60.224 28.8619 56.5327 28.6483C55.8516 28.6085 52.1452 28.6381 51.3074 28.6975Z" fill="#2D6DA6"/>
<path d="M360.459 80.8742H350.592V48.3026H339.457V38.7121H350.592V11.3883H360.459V80.8742ZM326.06 67.6645C329.137 67.6645 332.246 67.3629 335.384 66.7597C338.522 66.1565 341.117 65.3423 343.169 64.3169V73.7268C341.177 74.8125 338.613 75.6566 335.474 76.2599C332.396 76.8027 329.258 77.0742 326.06 77.0742H300.622V13.5597H338.461V22.9693H310.398V40.1597H334.931V49.6597H310.398V67.6645H326.06Z" fill="#2D6DA6"/>
<path d="M290.13 50.3836H280.896V32.8312H271.844V49.6597H262.61V11.7503H271.844V23.4217H280.896V11.3883H290.13V50.3836ZM243.69 35.8169C241.698 39.6772 239.194 42.7534 236.177 45.0455C233.219 47.3375 229.78 48.755 225.857 49.2979V39.9788C230.202 38.8328 233.521 35.8169 235.814 30.9312C238.108 26.0454 239.254 19.7423 239.254 12.0217L248.669 12.3836C248.669 17.5106 248.156 22.3058 247.13 26.7693L262.157 41.7883L256.002 48.3026L243.69 35.8169ZM290.13 53.6407V80.3313H231.197V53.6407H290.13ZM280.534 71.8268V62.1455H240.884V71.8268H280.534Z" fill="#2D6DA6"/>
<path d="M206.856 63.1407V11.3883H216.632V63.1407H206.856ZM166.481 37.2645V45.8597H183.681C187.543 45.8597 191.104 45.6185 194.363 45.136C197.682 44.5931 200.338 43.8693 202.329 42.9645V51.1979C200.398 52.1026 197.773 52.8264 194.453 53.3693C191.134 53.8518 187.483 54.0931 183.5 54.0931H156.704V29.4836H186.487V20.9788H156.613V12.7454H196.174V37.2645H166.481ZM218.081 71.193V80.3313H159.329V59.6121H169.287V71.193H218.081Z" fill="#2D6DA6"/>
<path d="M121.227 32.3788V22.9693H135.621V11.3883H145.398V62.9597H135.621V32.3788H121.227ZM104.57 37.9883C101.975 42.3915 98.7767 45.9804 94.9745 48.755C91.1724 51.4693 86.9779 53.0979 82.3916 53.6407V44.0503C86.1333 43.3868 89.4221 41.5471 92.2588 38.5312C95.0954 35.5153 97.2979 31.6851 98.867 27.0407C100.436 22.336 101.251 17.2693 101.311 11.8407L111.179 12.474C111.179 18.5661 110.273 24.2058 108.463 29.3931L128.107 46.0407L122.042 53.0979L104.57 37.9883ZM146.575 80.3313H88.0038V57.3503H97.9619V71.1027H146.575V80.3313Z" fill="#2D6DA6"/>
</svg>
